<?xml version="1.0" encoding="UTF-8" standalone="no"?>
<svg
   xmlns:dc="http://purl.org/dc/elements/1.1/"
   xmlns:cc="http://creativecommons.org/ns#"
   xmlns:rdf="http://www.w3.org/1999/02/22-rdf-syntax-ns#"
   xmlns:svg="http://www.w3.org/2000/svg"
   xmlns="http://www.w3.org/2000/svg"
   viewBox="0 0 177.41333 122.54667"
   height="122.54667"
   width="177.41333"
   xml:space="preserve"
   id="svg2"
   fill="currentColor"
   version="1.1"><metadata
     id="metadata8"><rdf:RDF><cc:Work
         rdf:about=""><dc:format>image/svg+xml</dc:format><dc:type
           rdf:resource="http://purl.org/dc/dcmitype/StillImage" /></cc:Work></rdf:RDF></metadata><defs
     id="defs6" /><g
     transform="matrix(1.3333333,0,0,-1.3333333,0,122.54667)"
     id="g10"><g
       transform="scale(0.1)"
       id="g12"><path
         id="path14"
         
         d="m 383.211,387.258 c 0.723,-0.36 1.621,-0.36 2.695,-0.36 1.438,0 3.059,0.184 4.856,0.36 4.676,0 7.371,-0.36 10.242,-0.36 0.898,0 1.797,0.184 4.316,0.184 2.696,0 4.856,-0.535 7.188,-0.535 0.898,0 1.797,0.176 2.883,0.351 4.129,0.899 7,0.36 9.882,1.446 2.52,0.894 3.954,1.797 3.954,3.594 0,0.359 -0.184,0.535 -0.184,0.898 -0.539,2.332 -1.438,3.23 -3.945,3.23 -2.52,0 -5.754,-0.898 -7.735,-1.972 -1.074,-0.723 -2.519,-0.899 -3.957,-0.899 -1.074,0 -2.156,0.176 -3.054,0.352 -2.336,0.547 -6.829,0 -10.969,0.898 -4.129,0.899 -5.391,0.723 -7,1.621 -0.899,0.539 -1.086,1.622 -1.086,3.059 0,1.258 0.187,2.695 0.187,4.129 0,2.883 0,9.355 -0.187,11.152 0,2.696 0.539,12.403 1.086,16.36 0.535,4.492 1.25,12.039 1.972,21.746 0.176,1.797 0.176,3.593 0.176,5.207 0,5.398 -0.539,9.168 -0.539,11.863 0,2.52 0.539,4.68 0.539,9.895 0,2.871 0.907,6.824 1.258,10.781 0.188,2.156 0.188,4.676 0.188,13.66 0,3.418 -1.262,8.445 -1.622,10.781 -0.175,1.621 -2.335,7.188 -4.492,7.188 -1.261,0 -3.957,-1.074 -5.578,-2.332 -1.797,-1.438 -3.769,-1.614 -3.769,-3.774 0,-2.156 -0.36,-7.547 -0.723,-12.761 -0.176,-1.434 -0.176,-2.696 -0.176,-3.954 0,-2.882 0.176,-5.031 0.715,-7.55 0.184,-0.536 0.184,-1.258 0.184,-1.797 0,-2.156 -0.723,-4.492 -0.723,-6.649 0,-1.261 1.086,-2.882 1.086,-3.593 0,-0.188 -0.188,-0.364 -0.363,-0.364 -0.723,-0.359 -1.434,-5.039 -1.434,-9.168 0,-0.898 0.176,-1.797 0.176,-2.695 0,-0.723 0.176,-1.801 0.176,-3.234 0,-5.575 -0.539,-14.922 -0.539,-19.598 0,-2.695 0.187,-3.234 0.187,-3.957 0,-1.973 -0.363,-4.309 -0.363,-6.289 0,-0.711 0.176,-1.438 0.176,-3.059 0,-2.691 -1.258,-4.668 -1.61,-8.804 0,-0.539 -0.187,-0.903 -0.187,-1.438 -0.36,-3.769 -0.723,-8.621 -0.723,-12.219 0,-1.082 0.188,-2.156 0.188,-2.879 0.175,-1.257 0.175,-2.695 0.175,-4.492 0,-3.418 -0.175,-7.547 -0.175,-9.883 0,-3.601 4.492,-3.242 6.648,-4.14" /><path
         id="path16"
         
         d="m 463.738,433.813 c -0.535,1.621 -0.183,7.195 -0.535,10.605 -0.187,2.52 -0.363,12.762 -0.363,19.773 v 5.754 c 0,3.953 1.797,8.629 1.797,10.606 0,1.621 -0.176,3.054 -0.176,6.472 0.176,2.696 0,5.032 0.898,7.911 0.899,2.871 3.047,7.004 3.047,8.261 0,1.262 1.985,3.957 3.059,5.938 1.082,1.972 3.418,4.308 5.937,5.027 1.797,0.539 5.567,1.074 8.262,1.074 1.082,0 2.156,-0.171 2.703,-0.347 2.696,-1.262 2.696,-6.301 2.696,-9.532 0,-3.234 -0.184,-4.855 -0.184,-6.289 0,-2.699 0.723,-4.679 0.723,-6.836 0,-4.667 -1.262,-9.16 -1.262,-13.656 0.363,-4.676 0.363,-11.504 0.723,-14.019 0.351,-2.696 0.898,-5.395 0.898,-8.633 -0.184,-1.25 -0.359,-3.41 -0.359,-5.395 0,-1.433 0.175,-2.507 0.175,-3.23 0,-0.899 0.184,-3.059 0.184,-5.391 0,-2.343 -0.184,-4.676 -0.184,-5.574 -0.175,-1.621 -0.714,-3.422 -2.695,-3.422 -1.262,0.188 -2.695,0.188 -4.316,0.188 -6.106,0 -10.782,-0.535 -15.637,-0.535 h -3.231 c -1.437,0 -1.796,0 -2.16,1.25 z m 13.125,-7.004 c 1.614,0 1.973,0.714 2.871,0.714 0.364,0 4.317,0.36 7.375,0.536 1.973,0 3.594,-0.536 4.668,-1.075 1.082,0 1.446,-1.796 1.446,-3.593 0,-1.434 -0.188,-3.055 -0.547,-3.418 -0.352,-0.535 -0.539,-1.438 -0.539,-2.871 0,-1.622 0.187,-3.782 0.539,-5.938 0.183,-2.156 0.359,-6.113 0.359,-9.707 0,-3.594 -0.176,-7.012 -0.176,-7.551 0.176,-1.609 1.075,-2.691 1.075,-4.129 0,-1.797 -0.899,-3.054 -0.899,-4.492 0,-1.621 0.899,-2.695 1.621,-3.594 0.176,-0.183 1.438,-0.722 1.973,-0.722 1.262,0 2.883,0.539 3.781,1.074 1.074,0.723 5.028,3.418 5.75,4.68 0.715,1.257 0.715,3.953 1.074,5.75 0.188,0.898 0.188,1.621 0.188,2.519 0,7.363 -0.363,9.883 -0.363,12.403 0,1.437 0,2.871 0.363,4.492 0.176,0.898 0.176,2.871 0.176,5.031 0,4.488 -0.176,10.242 -0.176,14.023 0,5.575 0.535,15.274 0.535,15.633 0,0.364 -0.535,2.696 -0.535,6.477 0,1.433 0.535,1.433 0.535,4.668 0,3.777 -0.535,5.75 -1.082,9.89 -0.176,1.614 -0.176,5.215 -0.176,8.985 0,6.113 -0.363,12.937 -0.363,16.183 0,2.871 1.086,5.391 1.086,7.911 0,1.433 -0.188,2.871 -0.188,5.027 0,4.855 -2.156,8.445 -2.156,12.578 0,2.695 -1.25,5.215 -3.957,5.215 -1.25,0 -7.547,-1.438 -9.883,-1.621 -2.332,-0.176 -7.011,-0.176 -9.343,-0.535 -2.336,-0.364 -5.215,-1.614 -6.653,-1.797 -1.433,-0.176 -3.777,-2.16 -6.113,-3.41 -2.332,-1.258 -7.547,-4.852 -7.723,-6.297 -0.187,-1.614 -1.797,-2.696 -2.883,-3.774 -1.621,-1.617 -4.851,-4.851 -6.113,-8.992 -2.332,-8.086 -4.668,-23.184 -4.851,-26.238 -0.176,-3.059 -0.176,-6.653 -0.176,-8.274 0,-7.547 -0.539,-14.55 -0.539,-21.75 -0.184,-2.507 0,-7.359 -0.36,-8.445 -0.539,-1.434 -1.086,-3.418 -1.086,-5.215 0,-1.609 0.364,-3.23 1.446,-4.133 0.539,-0.359 0.715,-1.07 0.715,-1.793 0,-1.078 -0.352,-2.16 -0.539,-3.418 0,-3.769 0.187,-7.367 0.187,-8.625 0,-0.898 0.176,-2.343 0.176,-3.593 0,-1.797 -0.539,-2.879 -0.539,-4.317 0,-1.98 0.176,-4.851 0.363,-7.011 0.176,-3.235 1.074,-5.575 1.973,-6.825 0.898,-1.261 2.332,-3.246 3.777,-3.246 1.438,0 2.336,1.262 3.234,2.883 0.899,1.613 0.36,3.059 1.622,3.594 1.25,0.539 2.148,3.418 2.332,4.492 0.175,0.723 0.539,4.855 0.539,8.086 0,2.519 -0.364,3.777 -0.364,5.215 0,1.98 1.086,3.418 1.086,5.215 0,0.898 -0.187,1.972 -0.187,3.769 0,2.156 0.539,4.141 1.086,5.938 0,2.519 3.769,2.519 5.39,2.871 1.973,0.547 4.668,0.547 9.168,0.547" /><path
         id="path18"
         
         d="m 536.719,535.012 c 1.074,1.621 1.609,3.058 1.609,4.492 0,1.086 -0.359,2.519 -1.433,3.594 -2.52,2.707 -4.493,4.679 -6.829,5.215 h -1.621 c -1.98,0 -3.953,-0.536 -5.215,-2.161 -1.609,-1.793 -5.027,-7 -5.027,-8.804 0,-2.153 1.61,-5.93 2.871,-7.364 1.082,-0.898 2.52,-1.437 4.141,-1.437 1.797,0 3.23,0.351 4.305,1.437 1.796,1.973 5.578,2.157 7.199,5.028" /><path
         id="path20"
         
         d="m 539.773,386 c 2.696,2.156 5.754,4.316 6.465,6.836 0.364,0.898 0.364,1.797 0.364,2.508 0,1.086 -0.364,2.16 -0.539,4.14 0,1.621 1.261,4.493 1.261,7.188 0,1.621 -0.187,3.23 -0.187,4.855 0,1.434 0.187,2.696 0.539,4.493 0.359,1.082 0.359,2.156 0.359,3.242 0,1.972 -0.359,4.129 -0.359,9.16 0,4.676 0.183,12.937 0.183,19.234 0,11.145 -0.359,19.231 -0.535,20.852 -0.187,1.621 -0.547,7.012 -0.547,12.043 0,3.777 0.899,8.269 1.797,12.039 0.723,2.519 0.723,5.937 0.723,9.348 v 6.472 c 0,4.68 -0.363,4.68 -1.262,8.985 -0.711,3.781 -2.508,5.402 -4.305,5.402 -0.187,0 -0.546,-0.188 -0.722,-0.188 -1.985,-0.539 -2.336,-2.695 -4.492,-3.957 -2.161,-1.257 -2.696,-2.332 -3.059,-6.109 -0.184,-2.512 -0.898,-5.566 -0.898,-8.625 0,-2.332 1.074,-4.316 1.074,-6.836 0,-2.695 -1.434,-5.203 -1.434,-8.621 0,-2.16 0.176,-4.316 0.176,-6.113 0,-1.797 -0.176,-3.418 -0.352,-4.321 -0.546,-1.609 -0.546,-13.836 -0.546,-20.308 v -2.871 c 0.183,-3.418 0.722,-5.754 0.722,-8.086 0,-1.797 -0.539,-3.418 -0.539,-5.403 0,-1.074 0.176,-1.972 0.363,-7.187 0,-1.609 -0.187,-3.059 -0.187,-4.668 -0.176,-2.879 -0.711,-19.055 -0.711,-22.656 0,-3.047 0.352,-8.797 0.352,-13.477 v -3.594 c 0,-1.433 0,-6.472 2.695,-6.472 0.898,0 1.445,1.082 3.601,2.695" /><path
         id="path22"
         
         d="m 553.789,547.949 c -1.973,0 -5.215,-0.535 -6.465,-1.969 -1.621,-1.796 -3.594,-6.828 -3.594,-8.632 0,-1.973 1.797,-4.309 3.047,-5.754 1.082,-0.711 2.344,-2.871 4.141,-3.047 h 1.973 c 1.433,0 3.242,0 4.14,0.898 1.797,1.973 3.407,2.696 5.203,5.567 1.262,1.621 1.621,3.058 1.621,4.492 0,1.086 -0.359,2.519 -1.433,3.594 -2.344,2.707 -4.68,4.679 -6.652,5.215 -0.184,0 -1.446,-0.364 -1.981,-0.364" /><path
         id="path24"
         
         d="m 631.797,417.453 c 0.898,4.317 1.621,8.633 1.621,12.59 0,4.852 -1.445,12.574 -3.594,17.793 -2.707,6.289 -7.199,9.883 -13.125,15.281 -5.754,5.391 -8.449,8.985 -12.765,11.68 -4.129,2.695 -4.676,2.336 -5.75,4.855 -0.899,2.52 -0.539,6.473 -1.621,8.082 -1.075,1.45 -1.797,2.883 -1.797,7.375 0,3.059 -0.715,5.75 -0.715,8.086 0,1.262 0.176,2.52 0.898,3.418 1.614,2.696 5.031,7.547 7.91,8.809 1.973,0.898 5.391,1.621 7.727,1.621 0.898,0 1.621,-0.184 2.156,-0.359 1.797,-0.903 3.781,-3.782 4.492,-7.012 0.539,-2.695 2.161,-3.957 2.161,-6.477 0,-2.336 -0.54,-4.129 -0.54,-5.925 0,-3.235 0.364,-6.29 0.364,-7.012 0,-1.074 3.047,-1.797 5.39,-1.977 2.332,-0.183 3.77,6.828 3.954,8.625 0,1.621 -0.899,4.492 -0.899,8.985 0,3.054 -0.898,6.113 -1.797,7.734 -0.722,1.797 -5.398,6.289 -8.633,7.551 -3.23,1.258 -8.621,2.332 -11.679,2.332 -3.055,0 -7.371,-2.332 -11.688,-5.028 -4.492,-2.699 -4.492,-3.593 -6.465,-6.476 -2.16,-2.871 -1.797,-4.492 -4.855,-8.086 -2.879,-3.594 -3.594,-9.531 -4.676,-15.82 -0.176,-0.899 -0.176,-1.621 -0.176,-2.332 0,-4.493 1.973,-7.012 3.231,-8.633 1.621,-1.613 1.621,-3.957 2.336,-5.754 0.547,-1.609 4.676,-5.566 6.648,-7.188 2.16,-1.621 7.012,-5.925 9.348,-8.449 l 6.472,-7.906 c 1.985,-2.695 5.032,-4.133 6.836,-8.273 1.797,-4.129 3.594,-6.102 4.133,-10.958 0,-1.082 0.176,-1.445 0.176,-1.796 0.359,-2.52 0.547,-5.403 0.547,-8.094 0,-2.16 -0.188,-4.133 -0.723,-5.567 -1.261,-3.418 -2.16,-6.3 -2.883,-7.011 -0.711,-0.727 -1.796,-1.985 -1.972,-4.317 -0.36,-2.336 -3.594,-5.566 -5.926,-7.375 -1.445,-1.25 -3.957,-2.148 -6.66,-2.148 -1.25,0 -2.695,0.176 -3.945,0.715 -4.141,1.621 -6.836,4.851 -8.997,6.836 -1.972,1.972 -2.507,5.562 -3.593,10.418 -0.36,1.621 -0.535,2.882 -0.535,3.957 0,2.156 0.535,3.418 1.074,5.386 0.722,2.348 2.519,4.321 2.519,6.301 0,2.695 -3.418,4.492 -5.578,4.492 -3.594,0 -5.926,-2.879 -6.465,-5.578 -0.183,-0.535 -0.183,-1.258 -0.183,-2.156 0,-4.133 1.258,-10.605 1.258,-13.66 0.187,-3.598 1.437,-10.246 2.519,-12.403 0.898,-2.16 5.031,-7.003 7.551,-8.085 2.695,-1.075 6.824,-2.336 10.242,-2.52 1.797,-0.18 3.594,-0.352 5.578,-0.352 1.797,0 3.594,0.172 5.215,1.25 3.23,2.157 10.781,6.114 13.301,8.27 2.695,2.156 3.406,2.336 5.566,5.391 2.156,3.054 3.953,6.113 4.317,8.273 0.535,2.156 1.796,5.027 2.695,8.621" /><path
         id="path26"
         
         d="m 429.766,241.801 c -1.621,-2.707 -3.957,-10.254 -5.391,-11.153 -4.492,-3.058 -6.477,-6.652 -11.328,-8.261 -2.16,-0.547 -6.652,-2.344 -9.348,-2.524 -2.871,0 -6.113,0.727 -8.086,0.727 -1.797,0.176 -3.418,0.711 -3.418,1.973 V 235.5 c -0.359,3.777 -0.535,16.719 -0.535,20.137 0.176,3.058 0.723,8.984 0.723,12.578 v 1.262 c 0,1.98 -0.188,3.593 -0.188,4.675 0,0.899 0,1.438 0.539,1.973 0.899,1.262 2.344,1.438 4.141,3.594 1.797,1.98 3.594,1.261 5.215,3.781 1.433,2.332 3.594,3.23 4.851,3.23 1.25,0 3.77,-2.519 6.653,-3.417 2.871,-0.899 4.851,-3.411 6.824,-5.204 1.973,-1.625 3.957,-5.754 4.316,-7.734 0.539,-1.973 1.075,-4.668 1.973,-6.289 0.898,-1.621 3.059,-3.781 3.059,-8.809 0,-2.882 0.898,-6.293 0.898,-9.347 0,-1.438 -0.176,-2.879 -0.898,-4.129 z m -37.032,66.14 c 0,5.215 0.899,14.563 0.899,20.313 0,1.437 0,2.519 -0.176,3.418 -0.539,2.512 -0.539,4.855 -0.539,7.012 v 3.234 c 0.176,1.434 0.363,2.691 2.52,2.691 2.335,0 3.945,0 5.929,-0.359 3.77,-0.535 8.27,-1.621 10.606,-3.418 2.332,-1.609 4.668,-2.148 7.187,-6.824 1.981,-3.598 2.695,-6.653 2.695,-9.707 0,-4.133 -1.437,-8.086 -3.957,-12.942 -1.433,-0.722 -1.433,-3.054 -2.332,-4.675 -0.898,-1.797 -2.16,-3.059 -4.132,-5.93 -1.797,-2.695 -3.243,-2.695 -5.039,-4.852 -1.61,-2.519 -3.055,-3.418 -5.567,-5.578 -2.695,-2.156 -6.297,-3.957 -7.371,-3.957 -0.539,0 -0.723,1.801 -0.723,3.957 z m 48.36,-33.613 c 0,1.621 -1.985,1.438 -2.883,2.332 -0.711,0.727 0,2.16 -1.434,4.504 -1.437,2.336 -8.632,8.086 -11.867,10.059 -3.055,1.984 -6.824,1.797 -6.824,3.957 0,1.258 3.055,3.054 5.566,5.574 2.157,2.512 4.141,3.594 6.114,5.754 6.113,7.187 5.574,10.601 6.836,15.996 0.175,1.07 0.351,2.332 0.351,3.418 0,3.055 -0.715,6.101 -1.074,8.262 -0.723,2.879 -5.93,7.734 -7.551,9.707 -1.797,2.156 -8.984,3.777 -13.301,4.675 -4.851,0 -9.531,2.336 -14.382,2.336 -2.336,0 -3.957,-0.898 -5.754,-0.898 -1.61,0 -3.594,0.535 -5.567,0.535 -2.519,-0.176 -5.937,-0.898 -10.605,-0.898 -2.52,-0.176 -3.242,-1.973 -3.242,-3.77 0,-1.262 0.363,-2.344 0.546,-2.695 0.352,-0.723 2.512,-2.696 2.696,-3.418 0.176,-0.535 0.363,-5.391 0.715,-7.188 0,-2.695 -0.176,-5.39 -0.176,-9.531 0,-1.262 -0.363,-2.695 -0.363,-4.316 0,-1.797 0.363,-2.871 0.363,-3.953 0,-5.93 -0.539,-11.321 -0.723,-21.563 0,-8.809 0.184,-24.992 0.184,-27.5 v -6.113 c 0,-2.344 0,-4.856 -0.184,-7.199 -0.176,-1.25 -0.176,-4.493 -0.176,-8.45 0,-8.086 0.176,-19.402 0.176,-24.082 v -2.156 c 0,-1.973 2.879,-3.594 3.778,-3.594 2.335,0 4.316,0.539 8.085,0.539 3.418,0 4.317,-0.175 7.012,-0.539 4.133,0 6.653,0.176 8.449,0.723 2.332,0.539 7.911,0.352 9.532,1.609 1.609,1.086 5.203,1.985 7.187,3.418 1.621,1.438 3.77,2.7 5.391,3.418 1.621,0.715 3.777,4.668 4.851,5.93 0.899,1.086 5.93,4.133 6.653,5.937 0.722,1.797 3.054,5.391 4.851,10.957 0.899,2.52 1.074,5.215 1.074,7.735 0,4.316 -1.433,8.086 -1.433,11.504 -0.899,4.851 -2.871,3.23 -2.871,8.984" /><path
         id="path28"
         
         d="m 513.172,227.238 c -0.535,0 -1.082,-0.359 -1.621,-0.722 -1.434,-1.258 -2.508,-1.621 -4.852,-3.418 -2.336,-1.797 -4.668,-1.438 -7.011,-2.157 -0.715,-0.175 -1.438,-0.351 -2.336,-0.351 -2.157,0 -4.493,0.535 -6.465,0.535 -2.52,0 -7.735,0.535 -8.27,1.074 -0.187,0.188 -0.363,0.723 -0.363,1.446 0,0.898 0.176,2.148 0.176,3.41 0,1.621 -0.176,2.156 -0.176,2.879 0,2.871 0.539,7.55 0.898,10.957 v 1.984 c 0,3.418 -0.535,7.012 -0.535,11.863 0,4.129 1.258,7.012 2.52,8.621 0.535,0.727 1.433,0.903 2.332,0.903 2.336,0 3.058,0 3.594,0.183 0.539,0.176 1.261,0.176 8.625,0.176 h 5.398 c 3.234,0.188 4.492,0.723 4.492,2.156 0,0.364 0,0.727 -0.183,1.078 -0.715,2.34 -1.438,3.243 -5.207,3.418 -2.52,0 -3.602,-0.714 -5.399,-0.898 -1.973,-0.18 -3.594,-0.18 -9.348,-0.18 -1.609,0 -3.054,0.18 -4.128,1.078 -1.075,0.899 -1.438,3.231 -1.438,6.114 0,1.797 0.176,3.953 0.363,6.113 0,0.898 0.176,1.609 0.176,2.332 0,2.52 -0.539,3.418 -0.539,4.68 0,1.25 0.539,2.332 0.539,3.765 0,1.438 -0.363,2.336 -0.539,5.043 0,1.793 0.176,4.664 0.715,12.403 0.183,1.25 0.183,2.695 0.183,4.129 0,9.171 -1.796,18.691 -1.796,21.211 0,2.871 1.437,3.234 3.234,4.667 0.898,0.723 1.797,0.899 2.871,0.899 2.879,0 5.762,0.187 9.356,0.187 1.074,0 2.148,-0.187 2.871,-0.363 2.156,-0.535 3.418,-0.723 3.593,-1.621 0.184,-0.535 0.723,-0.898 1.797,-0.898 1.082,0 3.055,1.261 3.242,1.445 1.797,1.609 3.055,2.695 3.055,4.668 0,1.98 -2.156,3.594 -4.316,3.957 -0.723,0.184 -1.981,0.184 -3.242,0.184 -2.696,0 -5.926,-0.184 -7.899,-0.184 -4.68,0 -6.836,0 -8.457,-0.727 -2.336,-0.894 -8.262,-1.07 -10.957,-1.25 -2.695,-0.183 -4.855,-1.793 -5.039,-2.339 -0.176,-0.352 -1.613,-0.715 -4.856,-0.715 -1.609,0 -1.796,-1.621 -1.972,-4.493 v -3.953 c 0,-3.957 0.176,-9.347 0.363,-10.968 0.359,-2.157 0.176,-6.473 0.359,-9.168 v -3.774 c 0,-3.238 0,-7.195 0.54,-9.707 0.359,-1.98 0.359,-4.312 0.359,-6.648 0,-7.735 -0.184,-10.606 -0.899,-13.485 -0.359,-1.437 -0.546,-3.058 -0.546,-4.496 0,-3.418 0.722,-6.824 0.722,-10.066 0,-0.899 -1.98,-2.332 -2.695,-3.77 -0.184,-0.183 -0.184,-0.359 -0.184,-0.722 0,-1.797 1.797,-4.856 2.344,-5.75 0.359,-0.539 0.359,-2.16 0.359,-4.321 0,-1.793 0,-4.129 -0.183,-6.824 0,-1.433 -0.176,-2.695 -0.176,-4.133 0,-4.851 0.535,-9.527 0.899,-12.222 0.535,-3.594 0.898,-4.856 0.898,-6.477 0,-1.433 -2.344,-1.262 -2.344,-3.055 0,-0.351 0,-0.714 0.184,-1.078 1.074,-2.879 0.722,-5.386 2.16,-6.109 0.535,-0.363 1.074,-0.363 1.797,-0.363 1.074,0 2.332,0.363 4.316,0.722 1.434,0.364 2.871,0.364 10.059,0.364 2.344,0 4.851,-0.364 7.371,-0.364 1.074,0 2.16,0.176 3.234,0.364 1.981,0.359 5.391,0.359 8.27,0.359 1.973,0 3.957,0 5.031,0.352 2.695,0.898 6.113,1.621 7.012,2.519 0.183,0.176 0.359,0.723 0.359,1.262 0,1.433 -0.722,3.418 -0.898,5.574 -0.176,1.797 -0.899,2.695 -1.797,2.695" /><path
         id="path30"
         
         d="m 602.148,352.883 c -1.796,0 -5.039,-2.344 -6.113,-4.141 -0.898,-1.258 -1.262,-3.594 -1.262,-5.566 0,-1.258 0.54,-2.344 0.54,-5.399 0,-2.336 -0.352,-5.754 -0.352,-7.902 0,-5.039 -1.086,-7.734 -1.086,-11.687 0,-4.133 2.336,-8.086 2.336,-9.348 0,-1.258 -1.797,-2.871 -1.797,-6.289 v -10.43 c 0,-1.973 0,-3.594 0.184,-4.133 0,-0.172 0.175,-0.718 0.175,-1.258 0,-2.16 -0.535,-5.75 -0.535,-8.269 0,-0.715 0,-1.438 0.176,-1.801 0.184,-0.711 0.184,-1.797 0.184,-3.055 0,-3.23 -0.36,-8.085 -0.723,-15.097 -0.535,-9.883 -2.156,-8.262 -2.871,-14.016 -0.723,-5.574 0,-5.398 -1.258,-8.094 -1.086,-2.695 -4.316,-8.085 -5.215,-8.984 -1.074,-0.898 -5.031,-5.574 -7.91,-6.113 -0.363,0 -0.723,-0.176 -1.074,-0.176 -2.695,0 -5.578,1.797 -7.551,2.871 -1.98,1.262 -5.937,3.418 -8.269,6.301 -2.161,2.871 -4.133,7.898 -4.493,11.504 -0.539,3.594 -1.621,13.301 -1.621,15.449 0,2.156 -0.539,8.633 -1.074,12.586 -0.187,0.723 -0.187,1.437 -0.187,2.336 0,3.418 0.722,7.012 0.898,10.066 0,9.168 0,10.969 0.188,13.125 v 10.246 c 0,1.434 0,3.055 0.175,5.211 0.535,7.004 1.258,14.739 1.981,21.391 0.176,1.434 0.176,2.519 0.176,3.594 0,3.953 -0.723,5.574 -1.797,8.804 -1.258,3.957 -4.317,7.914 -6.114,7.914 -1.972,0 -3.769,-3.246 -6.113,-5.214 -2.156,-1.973 -3.23,-2.336 -3.594,-7.727 -0.359,-5.398 -1.257,-12.59 -1.433,-14.207 -0.176,-1.613 -0.176,-7.551 -0.176,-10.059 0,-1.984 0.711,-5.578 0.711,-8.808 0,-0.899 0,-1.797 -0.176,-2.524 -0.898,-3.414 -0.723,-21.921 -1.258,-26.421 -0.187,-0.715 -0.187,-1.614 -0.187,-2.336 0,-3.594 0.91,-6.473 1.262,-9.168 0.183,-1.973 0.359,-3.957 0.359,-6.106 0,-1.258 0,-2.519 -0.359,-3.953 -0.176,-0.898 -0.352,-2.16 -0.352,-3.605 0,-3.946 0.898,-9.344 1.797,-12.754 1.25,-4.676 3.945,-11.504 5.39,-14.024 1.258,-2.519 4.852,-4.851 7.723,-6.472 2.695,-1.614 7.375,-4.668 9.531,-5.032 1.614,-0.175 5.215,-1.258 8.086,-1.258 1.075,0 2.16,0.184 2.883,0.536 2.871,1.445 9.344,3.781 11.317,5.754 1.984,1.98 2.882,3.242 5.578,3.777 2.871,0.539 5.925,8.808 7.91,12.043 2.148,3.23 3.23,8.086 3.953,14.019 0.715,5.754 0.176,10.246 1.074,18.332 0.539,4.317 0.723,11.504 0.723,18.157 0,5.933 -0.184,11.14 -0.547,13.484 -0.176,0.898 -0.176,1.797 -0.176,2.512 0,2.515 0.539,4.676 0.539,7.195 0,0.899 0,1.797 -0.176,2.695 -0.187,0.711 -0.187,1.614 -0.187,2.336 0,3.59 1.445,6.473 1.797,10.965 0.547,5.391 1.086,10.781 1.086,18.156 v 2.872 c 0,4.851 -0.723,6.113 -1.797,7.007 -0.188,0.188 -0.539,0.188 -0.899,0.188" /><path
         id="path32"
         
         d="m 702.801,353.422 c -0.36,0 -0.535,0 -0.899,-0.188 -2.695,-1.074 -1.621,-3.23 -3.054,-6.289 -1.438,-3.054 -1.614,-7.91 -1.797,-10.066 -0.176,-1.074 -0.176,-3.234 -0.176,-5.566 0,-2.336 0,-4.856 0.176,-6.653 0.183,-3.418 1.258,-13.66 1.258,-17.793 -0.176,-3.242 -0.723,-8.808 -0.723,-13.66 0,-1.801 0.187,-3.422 0.363,-4.855 0.184,-0.899 0.184,-1.622 0.184,-2.344 0,-3.231 -1.082,-5.028 -1.082,-7.547 v -3.234 c 0,-2.157 0,-4.317 0.535,-6.114 0.187,-0.539 0.187,-0.898 0.187,-1.433 0,-2.336 -1.261,-5.215 -1.261,-7.551 0,-2.879 -0.184,-8.27 -0.184,-12.766 0,-4.488 -0.539,-10.066 -0.898,-12.039 0,-0.539 -0.176,-0.722 -0.352,-0.722 -0.547,0 -1.621,1.984 -1.984,3.418 -0.36,1.796 -1.434,5.214 -2.696,7.011 -1.257,1.797 -3.593,6.653 -4.492,9.348 -0.898,2.691 -3.777,7.187 -4.129,9.519 -0.363,2.344 -0.898,4.317 -1.621,6.297 -0.722,1.977 -1.621,0.903 -2.336,6.289 -0.722,5.395 -15.457,30.024 -18.34,38.832 -0.535,1.61 -2.156,5.391 -2.507,7.911 -0.364,2.507 -4.317,7.363 -6.114,10.242 -1.796,2.871 -3.957,8.261 -6.289,11.14 -2.519,3.059 -7.734,6.118 -10.254,6.118 -2.16,-0.188 -6.828,-2.161 -7.55,-5.391 -0.176,-0.91 -0.36,-1.621 -0.36,-2.348 0,-1.793 0.723,-3.23 0.899,-9.707 0,-4.488 -0.539,-10.418 -0.539,-14.375 0.363,-5.933 0.722,-7.547 2.519,-10.242 0.723,-1.082 0.899,-1.797 0.899,-2.344 0,-0.898 -0.723,-1.433 -1.075,-2.148 -0.722,-1.082 -1.082,-3.777 -1.445,-7.734 -0.176,-2.333 -0.535,-5.926 -0.535,-9.532 0,-2.508 0.176,-5.027 0.535,-7.187 0.547,-3.77 0.899,-8.809 0.899,-12.403 0,-1.609 -0.176,-2.695 -0.176,-3.418 -0.176,-2.148 -0.535,-3.593 -0.899,-6.464 -0.183,-1.985 -0.535,-4.317 -0.535,-7.188 0,-1.086 0,-2.519 0.176,-3.777 0,-6.653 0,-7.375 0.359,-8.449 0.364,-0.723 0.364,-1.434 0.364,-2.332 0,-1.262 -0.188,-2.7 -0.188,-4.141 0,-1.074 0.363,-2.16 0.363,-3.77 0,-2.336 -0.898,-3.781 -0.898,-9.347 0.176,-6.473 1.082,-7.91 2.879,-7.91 1.437,0 1.074,3.418 3.769,5.925 2.696,2.524 1.985,4.856 2.52,6.477 0.898,2.519 0.898,7.375 0.898,10.605 0,2.161 -0.898,6.114 -0.898,8.985 v 2.883 c 0,3.765 -0.723,9.519 -1.621,12.578 -0.176,0.722 -0.36,1.433 -0.36,2.332 0,3.418 1.622,7.91 1.981,12.402 0,2.156 -0.535,3.418 -0.535,5.039 0,0.535 0,1.074 0.176,1.613 0.535,2.52 0.898,4.5 0.898,8.629 -0.176,3.235 -0.723,6.289 -0.723,10.422 0,4.141 0,7.371 -0.175,15.82 0,5.215 1.433,7.012 2.695,7.012 1.98,0 1.98,-3.594 3.055,-5.027 1.621,-2.16 1.437,-3.242 2.695,-6.113 1.262,-2.7 2.519,-3.594 2.519,-5.391 0,-2.695 2.161,-5.938 2.512,-7.375 0.359,-1.621 1.445,-5.027 3.418,-7.012 1.981,-1.972 2.156,-7.011 3.953,-10.422 1.797,-3.418 6.113,-11.148 7.012,-14.382 0.898,-3.235 1.621,-3.235 2.871,-4.668 1.262,-1.446 1.086,-2.52 1.262,-4.852 0.183,-2.348 6.113,-13.488 7.734,-16.906 1.609,-3.406 6.289,-15.633 7.91,-18.504 1.61,-2.883 2.871,-6.301 5.391,-8.274 1.797,-1.257 4.129,-1.257 6.824,-1.257 0.723,0 1.262,-0.176 2.52,-0.176 1.972,0 3.058,1.258 3.781,3.23 0.898,2.16 1.797,6.828 2.148,10.969 0,2.508 -0.715,5.027 -0.715,6.648 0,3.958 0,6.465 0.715,9.708 0.899,4.492 0.184,17.429 0.899,23.371 0.722,5.925 0.722,27.136 0.898,30.73 0.184,2.52 0.184,4.133 0.184,6.289 v 2.883 c -0.184,2.508 -0.535,5.75 -0.535,9.519 0,1.797 0,3.594 0.351,5.754 0.36,2.34 0.36,4.317 0.36,6.114 0,3.054 -0.176,5.386 -0.36,9.707 0,4.129 0.899,7.183 0.899,11.14 -0.352,3.059 -1.973,6.477 -4.133,6.477" /><path
         id="path34"
         
         d="m 774.871,275.59 c 0,-0.899 0.188,-3.059 0.188,-5.395 0,-2.34 -0.188,-4.675 -0.188,-5.574 -0.176,-1.621 -0.711,-3.418 -2.695,-3.418 -1.258,0.188 -2.696,0.188 -4.317,0.188 -6.101,0 -10.781,-0.539 -15.632,-0.539 h -3.235 c -1.433,0 -1.797,0 -2.156,1.25 -0.539,1.621 -0.176,7.199 -0.539,10.605 -0.184,2.52 -0.359,12.766 -0.359,19.777 v 5.75 c 0,3.957 1.796,8.633 1.796,10.606 0,1.621 -0.175,3.058 -0.175,6.476 0.175,2.696 0,5.028 0.898,7.911 0.898,2.871 3.047,7 3.047,8.257 0,1.262 1.98,3.957 3.055,5.942 1.086,1.972 3.418,4.304 5.937,5.027 1.797,0.535 5.567,1.074 8.262,1.074 1.086,0 2.16,-0.175 2.707,-0.351 2.695,-1.258 2.695,-6.297 2.695,-9.531 0,-3.235 -0.187,-4.852 -0.187,-6.29 0,-2.695 0.722,-4.675 0.722,-6.835 0,-4.668 -1.257,-9.161 -1.257,-13.653 0.359,-4.676 0.359,-11.504 0.722,-14.023 0.352,-2.696 0.899,-5.391 0.899,-8.633 -0.188,-1.25 -0.364,-3.406 -0.364,-5.391 0,-1.433 0.176,-2.507 0.176,-3.23 z m 15.098,20.312 c -0.176,1.61 -0.176,5.211 -0.176,8.985 0,6.113 -0.359,12.937 -0.359,16.179 0,2.872 1.082,5.391 1.082,7.911 0,1.433 -0.184,2.871 -0.184,5.031 0,4.851 -2.16,8.445 -2.16,12.578 0,2.691 -1.258,5.215 -3.953,5.215 -1.25,0 -7.551,-1.438 -9.883,-1.613 -2.336,-0.184 -7.012,-0.184 -9.348,-0.547 -2.332,-0.364 -5.215,-1.614 -6.648,-1.797 -1.438,-0.176 -3.781,-2.156 -6.113,-3.418 -2.336,-1.25 -7.551,-4.844 -7.727,-6.289 -0.184,-1.61 -1.797,-2.696 -2.879,-3.77 -1.621,-1.621 -4.855,-4.851 -6.113,-8.992 -2.336,-8.09 -4.668,-23.184 -4.856,-26.242 -0.175,-3.059 -0.175,-6.649 -0.175,-8.274 0,-7.546 -0.536,-14.546 -0.536,-21.746 -0.187,-2.508 0,-7.363 -0.363,-8.445 -0.535,-1.438 -1.082,-3.418 -1.082,-5.219 0,-1.609 0.359,-3.23 1.445,-4.129 0.536,-0.359 0.711,-1.074 0.711,-1.797 0,-1.074 -0.351,-2.16 -0.535,-3.418 0,-3.769 0.184,-7.363 0.184,-8.621 0,-0.898 0.176,-2.336 0.176,-3.593 0,-1.797 -0.536,-2.883 -0.536,-4.321 0,-1.98 0.176,-4.851 0.36,-7.007 0.176,-3.235 1.074,-5.579 1.972,-6.829 0.899,-1.257 2.336,-3.242 3.782,-3.242 1.433,0 2.332,1.262 3.23,2.883 0.899,1.609 0.363,3.055 1.613,3.594 1.258,0.535 2.157,3.418 2.344,4.492 0.176,0.723 0.535,4.852 0.535,8.086 0,2.519 -0.359,3.777 -0.359,5.215 0,1.98 1.082,3.418 1.082,5.215 0,0.898 -0.184,1.968 -0.184,3.765 0,2.16 0.536,4.145 1.082,5.942 0,2.515 3.77,2.515 5.391,2.871 1.973,0.547 4.668,0.547 9.172,0.547 1.609,0 1.973,0.711 2.871,0.711 0.359,0 4.316,0.363 7.371,0.539 1.973,0 3.594,-0.539 4.668,-1.075 1.086,0 1.445,-1.797 1.445,-3.593 0,-1.438 -0.183,-3.059 -0.546,-3.418 -0.36,-0.539 -0.536,-1.438 -0.536,-2.871 0,-1.622 0.176,-3.782 0.536,-5.938 0.187,-2.16 0.363,-6.113 0.363,-9.707 0,-3.598 -0.176,-7.016 -0.176,-7.551 0.176,-1.609 1.074,-2.695 1.074,-4.129 0,-1.797 -0.898,-3.058 -0.898,-4.496 0,-1.617 0.898,-2.691 1.621,-3.59 0.176,-0.187 1.434,-0.722 1.973,-0.722 1.257,0 2.878,0.535 3.777,1.074 1.074,0.723 5.031,3.418 5.754,4.676 0.711,1.261 0.711,3.957 1.074,5.754 0.184,0.894 0.184,1.621 0.184,2.515 0,7.367 -0.36,9.887 -0.36,12.407 0,1.433 0,2.871 0.36,4.492 0.175,0.894 0.175,2.871 0.175,5.027 0,4.492 -0.175,10.242 -0.175,14.023 0,5.579 0.539,15.274 0.539,15.633 0,0.364 -0.539,2.7 -0.539,6.477 0,1.437 0.539,1.437 0.539,4.668 0,3.777 -0.539,5.754 -1.086,9.894" /><path
         id="path36"
         
         d="m 873.914,236.945 c -1.797,2.871 -4.492,5.75 -6.289,7 -1.797,1.262 -4.492,7.739 -7.012,10.61 -2.519,2.879 -12.402,10.066 -12.402,10.789 0,0.539 1.074,1.433 3.234,3.41 2.344,2.156 1.981,3.601 4.676,6.297 2.695,2.695 3.957,4.308 5.391,6.828 2.336,3.953 5.578,8.269 6.828,13.301 0.723,3.054 3.953,7.371 5.039,8.633 1.074,1.257 3.418,7.007 3.953,9.519 0.363,1.984 1.074,7.012 1.074,12.402 0,1.446 0,3.059 -0.176,4.493 -0.359,3.781 -7.91,15.82 -12.039,15.82 -2.519,1.086 -7.011,3.23 -10.968,3.23 -1.797,0 -2.344,-0.172 -2.879,-0.172 -3.77,0 -7.188,1.434 -8.449,1.434 -3.231,0 -5.028,0 -7.372,-0.535 -0.898,-0.18 -2.148,-0.18 -3.593,-0.18 -3.957,0 -9.16,0.539 -11.321,0.903 -0.898,0.175 -1.796,0.175 -5.574,0.175 -1.074,0 -2.336,0 -3.058,-1.437 -0.36,-0.723 -0.36,-1.438 -0.36,-2.156 0,-3.418 2.879,-5.93 3.418,-9.707 0,-0.539 0.184,-1.075 0.184,-1.797 0,-2.16 -0.36,-5.032 -0.36,-7.375 0,-0.899 0.176,-1.61 0.176,-3.594 0,-3.231 -0.715,-8.984 -0.715,-13.66 0.176,-6.465 1.075,-16.172 1.797,-18.867 0.715,-2.7 0.899,-14.028 0.899,-20.137 0,-4.317 0.539,-9.707 0.539,-12.766 0,-1.25 -0.188,-2.156 -0.364,-2.508 -0.722,-1.261 -1.621,-6.476 -1.796,-10.07 v -3.418 c 0,-3.418 0.175,-7.551 0.363,-9.707 0,-2.695 -1.086,-3.769 -1.086,-5.926 0,-0.539 0.187,-1.437 0.363,-2.16 1.082,-3.957 0.535,-4.851 1.434,-8.269 0.722,-2.871 1.808,-4.309 3.781,-4.309 3.055,0 7.188,2.871 8.809,5.391 0.722,1.074 1.074,3.957 1.074,6.828 0,1.797 -0.352,3.418 -0.352,6.472 0,2.336 0.176,4.856 0.176,7.727 v 4.488 c 0,7.016 0.535,21.039 0.898,23.196 0.176,0.898 0.176,2.695 0.176,4.668 0,4.14 -0.176,9.355 -0.176,11.504 0,3.054 -1.074,4.855 -1.074,10.253 v 3.411 c 0,5.75 -0.547,11.687 -0.547,17.976 0,4.317 -0.363,8.449 -0.363,12.402 0,3.594 0.188,7.012 0.547,9.883 0.539,3.782 0.715,4.492 1.262,4.492 3.23,0 6.101,1.797 10.058,1.985 h 2.344 c 5.391,0 8.984,-1.262 13.301,-4.68 3.23,-2.508 4.129,-9.344 4.668,-10.605 0.183,-0.535 0.359,-1.973 0.359,-3.953 0,-3.059 -0.359,-7.004 -0.722,-9.524 -0.711,-4.133 -2.696,-9.883 -2.696,-12.402 0,-2.52 -1.972,-2.879 -2.871,-5.938 -0.898,-3.047 -5.391,-12.215 -6.473,-13.652 -1.074,-1.445 -1.437,-4.852 -1.796,-6.836 -0.364,-1.973 -2.161,-2.871 -3.594,-3.23 -1.438,-0.364 -4.68,-7.375 -6.289,-9.536 -0.723,-0.894 -0.899,-1.793 -0.899,-2.691 0,-1.262 0.36,-2.512 0.899,-3.77 0.898,-2.343 3.953,-6.117 6.289,-8.097 2.332,-1.973 3.418,-4.856 5.926,-7.547 2.519,-2.695 3.058,-3.059 5.039,-6.106 1.972,-3.054 5.754,-5.214 6.652,-6.472 3.953,-5.395 1.434,-5.578 7.363,-10.606 2.344,-1.984 5.75,-5.215 7.012,-5.215 1.445,0 3.953,2.52 4.141,4.676 0.175,1.438 1.074,3.235 1.074,5.203 0,1.262 -0.899,2.524 -1.262,3.782 -1.074,2.871 -4.492,7.55 -6.289,10.429" /><path
         id="path38"
         
         d="m 952.449,272.172 c -0.711,-3.957 -0.711,-5.215 -0.898,-8.813 -0.176,-3.589 -1.434,-10.964 -3.594,-14.199 -2.156,-3.23 -1.074,-5.926 -2.519,-8.086 -1.434,-2.156 -6.825,-12.398 -9.161,-14.019 -2.343,-1.614 -7.547,-5.571 -10.254,-6.653 -2.332,-0.898 -5.566,-1.257 -7,-1.257 -0.722,0 -0.898,0.359 -0.898,1.082 0,1.433 0.352,3.957 0.352,7.722 -0.176,2.16 -0.176,4.496 -0.176,6.653 v 5.753 c -0.176,3.055 -0.176,6.297 -0.176,9.344 0,3.059 1.973,11.867 1.973,15.457 0,3.059 -0.364,10.434 -0.364,15.824 v 2.52 c 0.188,5.215 1.086,13.66 1.086,17.793 0,3.23 -0.187,8.621 -0.187,18.691 0,4.493 -0.176,10.426 -0.176,12.762 0,2.883 -2.156,4.317 -2.519,6.289 0,0.363 -0.176,0.723 -0.176,1.082 0,1.613 0.715,3.41 1.797,4.309 0.898,0.722 3.418,1.262 6.113,1.262 0.898,0 1.797,-0.176 2.695,-0.176 2.512,-1.985 7.012,-2.16 9.348,-3.594 2.332,-1.438 9.344,-7.551 10.965,-10.793 1.613,-3.23 3.593,-7.363 3.769,-14.734 0.188,-7.012 1.621,-11.321 1.621,-16.536 0,-14.921 -0.898,-23.73 -1.621,-27.683 z m 14.024,52.851 c -1.434,1.075 -4.129,7.899 -5.75,9.52 -1.621,1.621 -4.317,2.52 -6.653,4.492 -12.402,10.43 -20.488,10.789 -25.527,10.789 -4.492,0 -4.129,-0.359 -7.012,-0.359 -3.953,0 -4.304,1.973 -7.363,1.973 -0.898,0 -2.156,-0.176 -3.777,-0.711 -2.696,-0.723 -4.133,-1.086 -5.215,-4.321 -0.352,-1.258 -0.539,-2.156 -0.539,-2.691 0,-0.899 0.363,-1.438 0.539,-2.16 0,-2.332 -0.715,-5.75 -0.715,-8.446 0.176,-3.781 0.176,-6.117 0.539,-7.914 0.176,-1.257 0.359,-4.488 0.359,-10.425 -0.183,-2.336 -0.183,-5.571 -0.183,-8.262 0,-4.68 0.183,-7.375 0.183,-10.07 0,-2.872 -0.183,-5.75 -0.359,-7.911 -0.363,-2.695 -0.539,-8.445 -0.539,-13.125 0,-2.695 0.176,-4.843 0.176,-7 0,-2.16 -0.36,-4.14 -0.36,-6.117 0,-1.98 0.36,-3.055 0.36,-4.312 0,-2.336 -0.535,-4.668 -0.711,-5.754 0,-1.258 0.898,-4.317 0.898,-7.012 0,-1.074 -0.187,-2.156 -0.722,-2.695 -0.723,-1.074 -1.086,-5.391 -1.086,-10.067 0,-5.207 0.363,-10.785 0.547,-12.941 0.363,-4.129 1.613,-5.93 3.234,-6.465 1.621,-0.547 5.027,-0.359 10.066,-0.723 3.77,0 7.012,2.161 10.071,2.52 3.23,0.352 8.445,3.769 11.855,5.754 1.621,1.07 6.836,7.187 8.445,7.359 1.621,0.188 6.477,6.477 9.707,10.434 3.243,3.953 7.375,14.012 8.274,15.816 0.359,0.539 0.359,1.438 0.359,2.153 0,2.703 0,3.601 0.364,4.316 0.898,1.98 1.796,1.617 1.972,3.418 0.184,1.797 0.535,5.027 1.797,11.141 1.258,6.113 1.258,21.933 1.258,26.066 0,6.473 -0.36,9.527 -1.258,12.039 -1.262,3.418 -1.797,10.606 -3.234,11.691" /><path
         id="path40"
         
         d="m 1038.73,227.238 c -0.54,0 -1.07,-0.359 -1.62,-0.722 -1.44,-1.258 -2.51,-1.621 -4.86,-3.418 -2.33,-1.797 -4.66,-1.438 -7.01,-2.157 -0.71,-0.175 -1.43,-0.351 -2.33,-0.351 -2.16,0 -4.49,0.535 -6.47,0.535 -2.52,0 -7.73,0.535 -8.27,1.074 -0.18,0.188 -0.36,0.723 -0.36,1.446 0,0.898 0.18,2.148 0.18,3.41 0,1.621 -0.18,2.156 -0.18,2.879 0,2.871 0.54,7.55 0.9,10.957 v 1.984 c 0,3.418 -0.54,7.012 -0.54,11.863 0,4.129 1.26,7.012 2.52,8.621 0.54,0.727 1.44,0.903 2.34,0.903 2.33,0 3.05,0 3.59,0.183 0.54,0.176 1.26,0.176 8.62,0.176 h 5.4 c 3.24,0.188 4.5,0.723 4.5,2.156 0,0.364 0,0.727 -0.19,1.078 -0.71,2.34 -1.44,3.243 -5.2,3.418 -2.52,0 -3.6,-0.714 -5.41,-0.898 -1.97,-0.18 -3.59,-0.18 -9.34,-0.18 -1.61,0 -3.06,0.18 -4.13,1.078 -1.08,0.899 -1.44,3.231 -1.44,6.114 0,1.797 0.18,3.953 0.36,6.113 0,0.898 0.18,1.609 0.18,2.332 0,2.52 -0.54,3.418 -0.54,4.68 0,1.25 0.54,2.332 0.54,3.765 0,1.438 -0.36,2.336 -0.54,5.043 0,1.793 0.18,4.664 0.72,12.403 0.18,1.25 0.18,2.695 0.18,4.129 0,9.171 -1.8,18.691 -1.8,21.211 0,2.871 1.44,3.234 3.24,4.667 0.9,0.723 1.79,0.899 2.88,0.899 2.87,0 5.74,0.187 9.34,0.187 1.08,0 2.16,-0.187 2.87,-0.363 2.16,-0.535 3.42,-0.723 3.6,-1.621 0.18,-0.535 0.72,-0.898 1.79,-0.898 1.09,0 3.06,1.261 3.25,1.445 1.79,1.609 3.05,2.695 3.05,4.668 0,1.98 -2.15,3.594 -4.31,3.957 -0.73,0.184 -1.99,0.184 -3.24,0.184 -2.7,0 -5.93,-0.184 -7.91,-0.184 -4.67,0 -6.83,0 -8.44,-0.727 -2.35,-0.894 -8.27,-1.07 -10.97,-1.25 -2.69,-0.183 -4.852,-1.793 -5.039,-2.339 -0.176,-0.352 -1.61,-0.715 -4.852,-0.715 -1.613,0 -1.797,-1.621 -1.973,-4.493 v -3.953 c 0,-3.957 0.176,-9.347 0.36,-10.968 0.363,-2.157 0.176,-6.473 0.363,-9.168 v -3.774 c 0,-3.238 0,-7.195 0.535,-9.707 0.364,-1.98 0.364,-4.312 0.364,-6.648 0,-7.735 -0.188,-10.606 -0.899,-13.485 -0.363,-1.437 -0.547,-3.058 -0.547,-4.496 0,-3.418 0.723,-6.824 0.723,-10.066 0,-0.899 -1.985,-2.332 -2.695,-3.77 -0.188,-0.183 -0.188,-0.359 -0.188,-0.722 0,-1.797 1.809,-4.856 2.344,-5.75 0.363,-0.539 0.363,-2.16 0.363,-4.321 0,-1.793 0,-4.129 -0.187,-6.824 0,-1.433 -0.176,-2.695 -0.176,-4.133 0,-4.851 0.539,-9.527 0.898,-12.222 0.539,-3.594 0.899,-4.856 0.899,-6.477 0,-1.433 -2.332,-1.262 -2.332,-3.055 0,-0.351 0,-0.714 0.175,-1.078 1.075,-2.879 0.723,-5.386 2.157,-6.109 0.539,-0.363 1.074,-0.363 1.797,-0.363 1.074,0 2.335,0.363 4.32,0.722 1.43,0.364 2.87,0.364 10.06,0.364 2.34,0 4.85,-0.364 7.37,-0.364 1.07,0 2.16,0.176 3.23,0.364 1.98,0.359 5.4,0.359 8.27,0.359 1.98,0 3.96,0 5.03,0.352 2.7,0.898 6.12,1.621 7.01,2.519 0.19,0.176 0.36,0.723 0.36,1.262 0,1.433 -0.72,3.418 -0.89,5.574 -0.18,1.797 -0.9,2.695 -1.8,2.695" /><path
         id="path42"
         
         d="m 1105.77,275.59 c 0,-0.899 0.19,-3.059 0.19,-5.395 0,-2.34 -0.19,-4.675 -0.19,-5.574 -0.18,-1.621 -0.71,-3.418 -2.69,-3.418 -1.26,0.188 -2.7,0.188 -4.32,0.188 -6.1,0 -10.78,-0.539 -15.64,-0.539 h -3.23 c -1.43,0 -1.8,0 -2.16,1.25 -0.53,1.621 -0.17,7.199 -0.53,10.605 -0.19,2.52 -0.37,12.766 -0.37,19.777 v 5.75 c 0,3.957 1.8,8.633 1.8,10.606 0,1.621 -0.17,3.058 -0.17,6.476 0.17,2.696 0,5.028 0.89,7.911 0.9,2.871 3.05,7 3.05,8.257 0,1.262 1.98,3.957 3.06,5.942 1.08,1.972 3.42,4.304 5.94,5.027 1.79,0.535 5.56,1.074 8.26,1.074 1.08,0 2.16,-0.175 2.7,-0.351 2.7,-1.258 2.7,-6.297 2.7,-9.531 0,-3.235 -0.19,-4.852 -0.19,-6.29 0,-2.695 0.72,-4.675 0.72,-6.835 0,-4.668 -1.26,-9.161 -1.26,-13.653 0.37,-4.676 0.37,-11.504 0.73,-14.023 0.35,-2.696 0.9,-5.391 0.9,-8.633 -0.19,-1.25 -0.37,-3.406 -0.37,-5.391 0,-1.433 0.18,-2.507 0.18,-3.23 z m 15.1,20.312 c -0.18,1.61 -0.18,5.211 -0.18,8.985 0,6.113 -0.36,12.937 -0.36,16.179 0,2.872 1.09,5.391 1.09,7.911 0,1.433 -0.19,2.871 -0.19,5.031 0,4.851 -2.16,8.445 -2.16,12.578 0,2.691 -1.26,5.215 -3.95,5.215 -1.25,0 -7.55,-1.438 -9.89,-1.613 -2.33,-0.184 -7.01,-0.184 -9.34,-0.547 -2.34,-0.364 -5.22,-1.614 -6.65,-1.797 -1.44,-0.176 -3.78,-2.156 -6.12,-3.418 -2.33,-1.25 -7.54,-4.844 -7.72,-6.289 -0.19,-1.61 -1.8,-2.696 -2.88,-3.77 -1.62,-1.621 -4.85,-4.851 -6.11,-8.992 -2.34,-8.09 -4.67,-23.184 -4.86,-26.242 -0.17,-3.059 -0.17,-6.649 -0.17,-8.274 0,-7.546 -0.54,-14.546 -0.54,-21.746 -0.19,-2.508 0,-7.363 -0.36,-8.445 -0.54,-1.438 -1.09,-3.418 -1.09,-5.219 0,-1.609 0.36,-3.23 1.45,-4.129 0.54,-0.359 0.71,-1.074 0.71,-1.797 0,-1.074 -0.35,-2.16 -0.54,-3.418 0,-3.769 0.19,-7.363 0.19,-8.621 0,-0.898 0.18,-2.336 0.18,-3.593 0,-1.797 -0.54,-2.883 -0.54,-4.321 0,-1.98 0.17,-4.851 0.36,-7.007 0.18,-3.235 1.07,-5.579 1.97,-6.829 0.9,-1.257 2.34,-3.242 3.78,-3.242 1.44,0 2.34,1.262 3.23,2.883 0.9,1.609 0.37,3.055 1.62,3.594 1.26,0.535 2.15,3.418 2.34,4.492 0.18,0.723 0.54,4.852 0.54,8.086 0,2.519 -0.36,3.777 -0.36,5.215 0,1.98 1.08,3.418 1.08,5.215 0,0.898 -0.19,1.968 -0.19,3.765 0,2.16 0.54,4.145 1.09,5.942 0,2.515 3.77,2.515 5.39,2.871 1.97,0.547 4.67,0.547 9.17,0.547 1.61,0 1.97,0.711 2.87,0.711 0.36,0 4.32,0.363 7.37,0.539 1.98,0 3.6,-0.539 4.67,-1.075 1.08,0 1.45,-1.797 1.45,-3.593 0,-1.438 -0.19,-3.059 -0.55,-3.418 -0.36,-0.539 -0.54,-1.438 -0.54,-2.871 0,-1.622 0.18,-3.782 0.54,-5.938 0.18,-2.16 0.36,-6.113 0.36,-9.707 0,-3.598 -0.18,-7.016 -0.18,-7.551 0.18,-1.609 1.08,-2.695 1.08,-4.129 0,-1.797 -0.9,-3.058 -0.9,-4.496 0,-1.617 0.9,-2.691 1.62,-3.59 0.18,-0.187 1.44,-0.722 1.97,-0.722 1.26,0 2.88,0.535 3.78,1.074 1.08,0.723 5.03,3.418 5.76,4.676 0.71,1.261 0.71,3.957 1.07,5.754 0.19,0.894 0.19,1.621 0.19,2.515 0,7.367 -0.37,9.887 -0.37,12.407 0,1.433 0,2.871 0.37,4.492 0.17,0.894 0.17,2.871 0.17,5.027 0,4.492 -0.17,10.242 -0.17,14.023 0,5.579 0.53,15.274 0.53,15.633 0,0.364 -0.53,2.7 -0.53,6.477 0,1.437 0.53,1.437 0.53,4.668 0,3.777 -0.53,5.754 -1.08,9.894" /><path
         id="path44"
         
         d="m 1211.83,352.883 c -1.8,0 -5.04,-2.344 -6.12,-4.141 -0.9,-1.258 -1.26,-3.594 -1.26,-5.566 0,-1.258 0.54,-2.344 0.54,-5.399 0,-2.336 -0.35,-5.754 -0.35,-7.902 0,-5.039 -1.09,-7.734 -1.09,-11.687 0,-4.133 2.34,-8.086 2.34,-9.348 0,-1.258 -1.8,-2.871 -1.8,-6.289 v -10.43 c 0,-1.973 0,-3.594 0.19,-4.133 0,-0.172 0.17,-0.718 0.17,-1.258 0,-2.16 -0.53,-5.75 -0.53,-8.269 0,-0.715 0,-1.438 0.17,-1.801 0.19,-0.711 0.19,-1.797 0.19,-3.055 0,-3.23 -0.36,-8.085 -0.73,-15.097 -0.53,-9.883 -2.15,-8.262 -2.87,-14.016 -0.72,-5.574 0,-5.398 -1.26,-8.094 -1.08,-2.695 -4.31,-8.085 -5.21,-8.984 -1.08,-0.898 -5.03,-5.574 -7.91,-6.113 -0.36,0 -0.72,-0.176 -1.08,-0.176 -2.69,0 -5.57,1.797 -7.55,2.871 -1.98,1.262 -5.93,3.418 -8.27,6.301 -2.15,2.871 -4.13,7.898 -4.49,11.504 -0.54,3.594 -1.62,13.301 -1.62,15.449 0,2.156 -0.54,8.633 -1.07,12.586 -0.19,0.723 -0.19,1.437 -0.19,2.336 0,3.418 0.72,7.012 0.9,10.066 0,9.168 0,10.969 0.18,13.125 v 10.246 c 0,1.434 0,3.055 0.18,5.211 0.54,7.004 1.26,14.739 1.98,21.391 0.18,1.434 0.18,2.519 0.18,3.594 0,3.953 -0.72,5.574 -1.8,8.804 -1.26,3.957 -4.32,7.914 -6.11,7.914 -1.97,0 -3.77,-3.246 -6.12,-5.214 -2.15,-1.973 -3.23,-2.336 -3.59,-7.727 -0.36,-5.398 -1.26,-12.59 -1.43,-14.207 -0.19,-1.613 -0.19,-7.551 -0.19,-10.059 0,-1.984 0.72,-5.578 0.72,-8.808 0,-0.899 0,-1.797 -0.17,-2.524 -0.9,-3.414 -0.73,-21.921 -1.26,-26.421 -0.19,-0.715 -0.19,-1.614 -0.19,-2.336 0,-3.594 0.9,-6.473 1.26,-9.168 0.19,-1.973 0.36,-3.957 0.36,-6.106 0,-1.258 0,-2.519 -0.36,-3.953 -0.17,-0.898 -0.36,-2.16 -0.36,-3.605 0,-3.946 0.91,-9.344 1.81,-12.754 1.25,-4.676 3.95,-11.504 5.39,-14.024 1.26,-2.519 4.85,-4.851 7.72,-6.472 2.7,-1.614 7.37,-4.668 9.53,-5.032 1.61,-0.175 5.22,-1.258 8.09,-1.258 1.07,0 2.16,0.184 2.88,0.536 2.87,1.445 9.35,3.781 11.32,5.754 1.98,1.98 2.88,3.242 5.57,3.777 2.88,0.539 5.93,8.808 7.91,12.043 2.15,3.23 3.24,8.086 3.96,14.019 0.71,5.754 0.18,10.246 1.07,18.332 0.54,4.317 0.73,11.504 0.73,18.157 0,5.933 -0.19,11.14 -0.55,13.484 -0.18,0.898 -0.18,1.797 -0.18,2.512 0,2.515 0.54,4.676 0.54,7.195 0,0.899 0,1.797 -0.17,2.695 -0.19,0.711 -0.19,1.614 -0.19,2.336 0,3.59 1.44,6.473 1.8,10.965 0.54,5.391 1.08,10.781 1.08,18.156 v 2.872 c 0,4.851 -0.72,6.113 -1.8,7.007 -0.18,0.188 -0.53,0.188 -0.89,0.188" /><path
         id="path46"
         
         d="m 297.605,502.082 c -4.05,5.203 -8.671,11.25 -9.531,17.41 -3.426,24.438 -6.043,49.082 6.457,74.738 -8.996,-2 -13.789,-6.062 -16.574,-11.933 -4.238,-8.945 -8.496,-17.996 -11.426,-27.41 -6.797,-21.899 -5.508,-41.438 13.36,-58.633 20.265,-18.477 25.968,-42.695 16.172,-68.613 -4.551,-12.043 -12.676,-22.754 -19.278,-34.016 -2.207,-3.738 -5.566,-6.992 -7.012,-10.969 -7.304,-20.191 -9.921,-40.679 -4.277,-62.008 6.68,-25.214 8.984,-50.824 4.199,-76.781 -3.515,-19.058 -3.515,-38.457 2.227,-56.758 4.336,-13.816 1.973,-25.652 -3.106,-37.949 -1.211,-2.937 -2.793,-5.719 -3.964,-8.672 -4.207,-10.554 -8.309,-21.148 -13.028,-33.218 3.477,0.918 5.41,1.074 7.012,1.89 13.242,6.781 22.324,17.231 28.82,30.664 8.231,17.043 7.391,34.887 5.574,52.621 -2.05,20.067 -2.304,39.864 5.129,58.778 6.18,15.734 6.942,31.632 5.496,48.097 -1.152,13.145 -4.218,25.723 -7.851,38.407 -5.906,20.617 -4.609,40.586 7.793,59.406 7.383,11.199 12.883,23.66 19.101,35.625 9.61,18.465 6.563,35.117 -7.507,50.078 -5.989,6.363 -12.453,12.371 -17.786,19.246" /><path
         id="path48"
         
         d="m 192.273,369.238 c -14.168,6.614 -22.597,17.168 -25.097,32.5 -2.196,13.442 3.605,23.032 16.816,25.512 9.699,1.816 19.727,2.266 29.629,2.441 18.457,0.313 36.438,2.918 53.586,9.801 5.613,2.246 11.727,4.914 12.539,13.266 -9.082,2.066 -16.894,-0.918 -24.816,-2.922 -4.989,-1.262 -9.961,-2.918 -15.039,-3.504 -16.563,-1.894 -33.243,-2.883 -49.746,-5.18 -12.227,-1.687 -24.415,-4.734 -33.692,-13.765 -20.301,-19.778 -17.918,-51.446 4.551,-68.926 8.117,-6.309 16.133,-13.02 22.988,-20.637 23.965,-26.629 35.481,-58.957 41.281,-93.719 0.809,-4.855 2.02,-9.64 3.055,-14.453 0.918,-0.109 1.856,-0.214 2.774,-0.332 2.003,3.629 5.05,7.071 5.812,10.946 2.215,11.281 4.441,22.707 4.981,34.152 0.886,18.887 -2.512,37.312 -10.461,54.617 -8.262,17.969 -21.141,31.817 -39.161,40.203" /><path
         id="path50"
         
         d="m 231.406,757.551 c -1.66,11.609 -3.41,23.762 -7.902,34.109 -7.461,17.192 -27.527,23.891 -48.094,18.274 -2.297,-0.625 -4.394,-2.254 -9.25,-4.825 5.918,-2.429 9.192,-4.367 12.695,-5.105 13.333,-2.871 20.598,-12.785 25.801,-25.844 7.617,-19.07 8.008,-38.379 2.688,-58.66 -4.016,-15.273 -6.223,-30.887 -4.688,-46.965 0.078,-0.777 0.215,-2.371 0.215,-2.332 0.106,-1.34 0.34,-4.344 0.203,-2.336 0.156,-2.137 0.188,-2.613 0.176,-2.34 0.012,-0.293 0.02,-0.402 0.156,-2.336 -0.117,1.711 0.09,-1.336 0.149,-2.332 0.008,-0.254 0.027,-0.644 0.047,-1.078 0.019,-0.418 0.058,-1.172 0.058,-1.265 0.051,-0.996 0.129,-3.977 0.098,-2.336 0.039,-2.024 0.058,-3.418 0.058,-2.332 0,-1.133 0.02,-3.039 0.039,-2.344 -0.019,-0.774 -0.019,-2.844 0,-2.336 -0.019,-0.711 -0.058,-2.813 -0.027,-2.332 -0.039,-0.742 -0.109,-2.813 -0.07,-2.348 -0.047,-0.75 -0.164,-3.035 -0.098,-2.332 -0.078,-0.965 -0.203,-2.922 -0.144,-2.336 -0.078,-0.816 -0.118,-1.422 -0.176,-2.332 0.027,0.528 -0.098,-0.984 -0.227,-2.336 0,0.188 -0.175,-1.55 -0.273,-2.32 -0.098,-0.781 -0.195,-1.555 -0.313,-2.336 -0.672,-4.656 -1.64,-9.297 -2.949,-13.926 -0.644,-2.246 -0.098,-4.89 -0.098,-7.468 6.047,-2.414 10.176,0.234 13.313,5.132 2.461,3.832 4.871,7.903 6.414,12.25 3.41,9.61 7.031,19.278 9.102,29.254 1.718,8.215 2.578,17.129 1.64,25.364 -2.265,19.621 -2.187,39.074 0.391,58.722 0.949,7.196 2.062,14.766 1.066,21.727" /><path
         id="path52"
         
         d="m 291.27,672.758 c -18.723,-0.117 -35.637,-17.481 -36.895,-37.856 -0.684,-11.179 4.5,-17.664 14.199,-17.73 19.266,-0.129 35.067,14.859 37.449,35.523 1.504,13.125 -3.632,20.129 -14.753,20.063" /><path
         id="path54"
         
         d="m 221.309,473.703 c 4.949,3.527 9.031,5.383 11.648,8.477 11.672,13.84 13.301,38.027 4.512,54.199 -0.196,0.344 -0.391,0.691 -0.606,1.047 4.668,-4.809 -5.332,5.191 -5.683,8.379 -0.215,0.293 -0.43,0.601 -0.645,0.906 -1.719,2.434 -3.418,4.894 -4.98,7.422 -6.192,10.019 -6.7,20.051 0.148,30.195 1.727,2.559 5.692,5.039 2.656,9.192 -10.714,-3.118 -15.558,-5.696 -23.859,-12.661 -11.504,-9.625 -13.984,-20.914 -6.914,-33.902 3.41,-6.269 7.434,-12.246 11.594,-18.051 8.64,-12.058 13.633,-25 11.718,-40.172 -0.539,-4.218 0.184,-8.586 0.411,-15.031" /><path
         id="path56"
         
         d="m 405.547,579.238 c 12.851,1.821 25.652,4.457 37.879,8.071 8.75,2.586 15.996,3.562 25.254,-0.227 15.8,-6.445 31.691,-1.504 42.871,12.473 -8.184,0.398 -15.528,0.562 -22.84,1.179 -6.047,0.5 -12.609,0.469 -17.949,2.586 -6.926,2.739 -12.375,2.016 -18.809,-0.078 -13.906,-4.508 -28.156,-5.332 -42.512,0.688 -9.921,4.16 -20.468,3.925 -30.566,2.39 -11.473,-1.75 -22.879,-4.238 -33.789,-7.527 -11.113,-3.359 -21.602,-8.086 -32.363,-12.207 0.539,-1.016 1.074,-2.023 1.601,-3.039 3.137,0.285 6.27,0.519 9.395,0.832 16.672,1.668 33.34,5.203 49.875,-2.387 10.281,-4.722 21.406,-4.234 31.953,-2.754" /></g></g></svg>